<svg xmlns="http://www.w3.org/2000/svg" width="1024" height="1024" viewBox="0 0 1024 1024">
<g>
<path d="M 549.48 435.79 C555.31,442.73 550.96,438.96 537.00,424.98 C503.18,391.11 456.34,359.98 411.17,341.35 C406.40,339.38 402.35,337.37 402.17,336.89 C401.98,336.40 401.08,336.00 400.17,336.00 C397.89,336.01 383.58,330.79 383.17,329.80 C382.98,329.36 381.72,329.00 380.35,329.00 C377.00,329.00 359.58,323.96 359.17,322.87 C358.98,322.39 357.63,322.00 356.17,322.00 C354.70,321.99 347.88,320.91 341.00,319.58 C321.07,315.73 307.72,314.65 288.64,315.34 C279.21,315.69 269.28,316.27 266.58,316.63 L 261.65 317.30 L 263.99 313.90 C267.93,308.17 294.02,282.73 302.50,276.37 C335.99,251.20 374.67,235.32 416.69,229.46 C439.60,226.27 507.36,228.92 508.83,233.06 C509.02,233.58 511.01,234.00 513.27,234.00 C517.43,234.00 529.09,236.80 530.00,238.02 C530.28,238.39 532.27,238.97 534.44,239.31 C536.61,239.66 538.77,240.63 539.24,241.47 C539.75,242.38 541.49,243.00 543.55,243.00 C546.82,243.00 565.69,250.05 566.92,251.73 C567.24,252.16 569.35,253.72 571.62,255.19 C575.52,257.72 575.77,258.16 576.25,263.68 C576.92,271.49 575.35,318.89 573.99,331.90 C573.39,337.62 573.00,343.24 573.13,344.40 C573.50,347.68 571.87,362.44 571.08,363.00 C570.69,363.27 569.57,369.12 568.58,376.00 C567.59,382.88 565.94,392.55 564.91,397.50 C563.88,402.45 563.01,408.30 562.99,410.50 C562.95,414.82 559.43,431.94 558.38,432.91 C558.02,433.23 558.05,431.70 558.44,429.50 C558.82,427.30 559.32,424.38 559.55,423.00 C559.78,421.62 559.10,422.98 558.04,426.00 C556.99,429.02 556.09,432.62 556.05,434.00 C555.86,439.96 554.49,439.54 546.01,430.88 C541.49,426.27 539.04,424.21 540.56,426.31 C542.08,428.40 544.09,430.65 545.02,431.31 C545.95,431.96 547.96,433.98 549.48,435.79 ZM 234.94 587.72 C231.81,595.07 228.97,601.37 228.63,601.70 C227.64,602.69 217.43,580.40 213.15,567.90 C204.08,541.40 200.05,519.17 199.30,491.50 C198.45,459.99 201.34,436.40 209.35,409.50 C211.80,401.25 214.98,391.44 216.41,387.70 C221.53,374.28 233.73,351.51 241.56,340.75 L 245.02 336.00 L 258.93 336.00 C312.19,336.00 362.60,345.35 404.49,362.99 C416.03,367.85 436.84,377.93 437.48,378.97 C438.22,380.17 436.27,381.43 428.14,384.97 C408.47,393.53 374.09,416.40 348.52,437.94 C334.02,450.15 313.10,470.66 299.51,486.00 C273.52,515.32 250.03,552.33 234.94,587.72 ZM 468.13 733.85 C405.62,739.09 340.66,718.31 291.35,677.32 C273.22,662.24 243.99,630.67 244.00,626.16 C244.01,623.39 256.16,596.27 264.96,579.39 C285.12,540.70 306.18,511.27 336.50,479.42 C346.71,468.69 351.55,464.25 352.04,465.17 C352.90,466.80 354.23,482.74 354.04,489.25 C353.96,491.86 354.32,494.00 354.82,494.00 C355.33,494.00 356.05,496.36 356.43,499.25 C359.24,520.61 366.52,547.94 376.08,573.00 C378.92,580.42 381.98,588.53 382.89,591.00 C383.80,593.47 384.93,596.11 385.40,596.86 C385.87,597.60 388.64,603.08 391.56,609.03 C410.46,647.55 441.21,689.67 472.47,719.87 C480.07,727.22 483.82,731.50 483.05,731.97 C482.40,732.37 475.69,733.22 468.13,733.85 ZM 550.50 555.42 C540.74,557.18 534.00,558.07 534.00,557.58 C534.00,557.38 537.13,551.79 540.95,545.16 C547.28,534.17 560.00,508.12 560.00,506.13 C560.00,505.68 560.90,504.27 562.00,503.00 C563.10,501.73 564.00,499.75 564.01,498.60 C564.01,497.44 566.44,489.52 569.40,481.00 C572.36,472.48 576.26,460.10 578.06,453.50 C579.87,446.90 581.64,441.27 582.01,441.00 C582.96,440.28 585.05,432.48 586.15,425.50 C588.51,410.61 589.31,406.43 590.00,405.50 C590.83,404.37 593.38,391.30 593.22,389.00 C593.01,385.97 595.34,369.48 596.05,369.00 C596.46,368.73 597.07,362.66 597.42,355.52 C597.77,348.38 598.50,342.10 599.03,341.57 C599.56,341.04 600.09,334.05 600.19,326.05 C600.36,312.81 600.43,312.31 600.94,320.50 L 601.51 329.50 L 602.34 320.00 C602.80,314.77 603.02,302.06 602.84,291.75 C602.65,281.44 602.89,273.00 603.37,273.00 C603.85,273.00 603.63,272.24 602.87,271.31 C601.74,269.91 607.21,273.21 609.00,275.00 C609.28,275.27 611.75,277.27 614.50,279.44 C625.82,288.37 638.83,301.13 648.67,312.95 C660.66,327.36 670.14,340.81 672.55,346.84 C673.47,349.13 674.62,351.00 675.12,351.00 C675.61,351.00 677.25,353.44 678.76,356.42 C680.27,359.40 683.44,365.52 685.82,370.03 C691.04,379.94 697.00,394.48 697.00,397.30 C697.00,400.00 699.18,406.16 700.71,407.78 C701.38,408.49 702.18,410.74 702.50,412.78 C704.14,423.41 709.51,448.85 710.28,449.61 C710.67,450.01 711.00,451.95 711.00,453.92 C711.00,457.02 709.75,458.90 701.67,468.00 C672.76,500.53 640.54,524.00 603.35,539.59 C597.38,542.09 590.27,544.56 587.55,545.08 C584.83,545.60 582.36,546.39 582.05,546.85 C581.31,547.96 560.47,553.62 550.50,555.42 ZM 582.00 662.64 C545.98,698.47 516.25,728.04 515.95,728.36 C514.71,729.65 508.27,724.25 493.25,709.31 C465.62,681.80 449.51,661.31 428.94,627.50 C418.44,610.25 402.05,576.00 404.29,576.00 C404.57,576.00 411.26,577.54 419.15,579.43 C440.69,584.58 452.94,586.07 478.50,586.68 C566.80,588.77 647.32,559.80 699.98,507.00 C704.09,502.88 706.64,500.48 705.65,501.67 C703.89,503.77 703.90,503.87 705.84,504.91 C707.33,505.71 707.96,505.67 708.31,504.74 C709.21,502.36 707.84,512.58 705.86,522.95 C703.61,534.84 703.03,535.81 687.06,554.97 C673.87,570.79 657.58,587.48 582.00,662.64 ZM 527.87 799.72 C518.97,807.97 516.53,809.19 511.56,807.86 C507.69,806.82 499.30,798.45 497.91,794.23 C495.93,788.24 497.43,784.83 506.52,774.63 C526.74,751.91 743.75,534.83 749.31,531.75 C755.89,528.10 761.96,530.39 768.93,539.15 C773.03,544.30 774.67,549.22 773.64,553.24 C773.12,555.30 548.04,781.02 527.87,799.72 ZM 816.93 537.50 C816.32,540.92 815.02,544.36 813.90,545.50 C812.00,547.44 812.00,547.38 813.97,543.30 C815.09,540.99 815.98,538.29 815.96,537.30 C815.93,536.31 815.29,537.25 814.52,539.40 C813.76,541.54 812.37,544.02 811.43,544.90 C810.06,546.18 809.88,546.20 810.55,545.00 C811.27,543.70 811.15,543.69 809.67,544.89 C808.20,546.08 807.72,546.05 806.23,544.71 C805.28,543.85 804.07,543.22 803.54,543.32 C801.71,543.66 795.88,524.52 797.36,523.04 C798.08,522.32 797.98,522.00 797.03,522.00 C796.28,522.00 795.94,521.73 796.27,521.39 C796.61,521.06 796.00,519.85 794.93,518.70 C793.86,517.55 792.45,515.12 791.79,513.31 C791.14,511.49 790.21,510.00 789.74,510.00 C789.27,510.00 789.16,509.55 789.50,509.00 C789.84,508.45 789.61,508.00 789.00,508.00 C788.39,508.00 788.20,507.48 788.60,506.85 C788.99,506.21 788.89,505.95 788.37,506.27 C787.86,506.59 784.81,504.22 781.59,501.00 C777.76,497.19 775.21,495.37 774.20,495.75 C773.09,496.18 772.90,495.95 773.50,494.92 C773.95,494.14 773.95,493.83 773.50,494.24 C773.05,494.65 772.10,494.50 771.39,493.91 C770.69,493.32 768.62,492.61 766.80,492.33 C764.99,492.04 763.02,491.42 762.43,490.93 C761.84,490.45 759.07,489.56 756.26,488.96 C750.21,487.66 745.00,483.26 745.00,479.44 C745.00,477.26 748.98,472.18 750.90,471.92 C751.23,471.87 752.40,471.64 753.50,471.41 C754.60,471.18 757.50,470.71 759.95,470.37 C763.94,469.82 767.00,468.16 767.00,466.55 C767.00,466.23 765.76,466.23 764.25,466.56 C762.74,466.89 765.05,465.56 769.39,463.62 C773.74,461.67 779.30,458.38 781.76,456.29 C787.52,451.40 793.54,441.42 796.25,432.28 C797.42,428.30 798.57,425.23 798.79,425.45 C799.47,426.14 795.94,437.19 793.48,442.05 C792.19,444.59 789.56,448.74 787.63,451.26 C784.23,455.71 784.20,455.84 786.50,455.60 C790.06,455.22 792.30,453.06 790.89,451.37 C790.04,450.34 790.05,450.00 790.94,450.00 C791.59,450.00 791.84,449.55 791.50,449.00 C791.16,448.45 791.57,448.00 792.41,448.00 C793.36,448.00 793.72,447.43 793.36,446.50 C793.05,445.67 793.31,445.00 793.95,445.00 C794.59,445.00 794.85,444.57 794.53,444.05 C794.21,443.52 795.28,440.29 796.91,436.87 C799.28,431.90 799.80,429.61 799.51,425.57 C799.28,422.27 799.67,419.62 800.64,418.00 C801.60,416.40 801.89,416.22 801.44,417.50 C800.01,421.59 799.80,424.00 800.85,424.00 C801.45,424.00 801.65,423.26 801.30,422.34 C800.86,421.20 801.04,420.91 801.85,421.41 C802.57,421.85 802.94,421.63 802.77,420.86 C802.62,420.15 804.08,418.76 806.00,417.78 C809.04,416.22 809.54,416.19 809.83,417.51 C810.00,418.34 810.53,418.79 811.00,418.50 C813.31,417.08 817.00,426.20 817.00,433.33 C817.00,434.55 817.70,436.56 818.56,437.78 C819.41,439.00 819.77,440.00 819.36,440.00 C818.94,440.00 819.14,440.54 819.80,441.20 C821.25,442.65 821.40,444.37 820.00,443.50 C819.43,443.15 819.00,443.99 819.00,445.44 C819.00,448.37 821.59,449.00 822.31,446.25 C822.75,444.58 822.77,444.58 822.88,446.25 C822.95,447.21 823.45,448.00 824.00,448.00 L 824.03 448.00 C824.39,448.00 824.65,448.00 824.78,447.87 C825.12,447.53 824.57,446.27 822.53,441.66 L 822.46 441.50 C821.06,438.34 820.12,435.25 820.38,434.63 C820.67,433.92 820.87,433.99 820.92,434.83 C820.96,435.56 822.57,439.42 824.48,443.40 C829.69,454.23 836.49,459.98 850.03,465.00 C853.66,466.35 854.43,466.87 852.33,466.56 C850.59,466.30 846.87,464.98 844.08,463.63 C841.29,462.28 839.00,461.53 839.00,461.97 C839.00,462.82 848.14,467.00 849.99,467.00 C850.61,467.00 850.85,467.44 850.52,467.97 C849.79,469.15 854.32,470.41 856.87,469.74 C857.89,469.48 859.57,469.74 860.61,470.33 C861.65,470.92 864.13,471.45 866.12,471.50 C870.89,471.63 873.48,474.30 873.57,479.17 C873.61,481.26 873.45,482.78 873.21,482.55 C872.98,482.31 871.68,483.14 870.32,484.40 C868.85,485.76 866.48,486.73 864.42,486.81 C862.53,486.88 859.99,487.47 858.78,488.12 C857.57,488.76 855.89,489.38 855.04,489.48 C850.11,490.08 845.00,491.36 845.00,491.99 C845.00,493.25 836.99,498.11 835.96,497.48 C835.43,497.15 835.00,497.36 835.00,497.94 C835.00,498.52 834.30,499.00 833.44,499.00 C832.58,499.00 832.11,499.38 832.40,499.83 C832.68,500.29 831.21,502.29 829.12,504.26 C825.55,507.65 825.03,508.79 824.94,513.40 C824.89,515.57 822.37,520.77 820.41,522.73 C819.68,523.47 818.83,525.74 818.53,527.78 C818.23,529.83 817.51,534.20 816.93,537.50 ZM 772.50 463.31 C769.38,464.93 768.25,465.91 769.50,465.92 C770.60,465.93 772.33,465.31 773.34,464.54 C774.35,463.78 776.05,463.32 777.12,463.52 C778.18,463.73 778.81,463.50 778.51,463.02 C778.21,462.53 778.42,461.86 778.98,461.51 C779.54,461.16 780.00,461.34 780.00,461.91 C780.00,464.24 782.83,461.64 783.22,458.95 L 783.65 456.03 L 780.57 458.37 C778.88,459.66 775.25,461.88 772.50,463.31 ZM 877.00 478.54 C877.00,480.44 876.78,482.00 876.50,482.00 C876.22,482.00 876.00,480.76 876.00,479.25 C875.99,477.74 874.95,475.20 873.67,473.60 C871.75,471.20 870.56,470.68 866.77,470.60 C864.25,470.55 862.71,470.17 863.35,469.77 C864.02,469.34 863.50,469.02 862.08,469.02 C860.75,469.01 859.96,468.70 860.33,468.34 C861.56,467.11 871.80,470.26 874.41,472.68 C876.23,474.37 877.00,476.10 877.00,478.54 ZM 832.92 458.25 C835.36,460.30 837.48,461.85 837.65,461.68 C837.82,461.52 835.04,458.39 831.48,454.74 C825.78,448.90 824.32,447.97 825.25,450.75 C825.39,451.16 825.89,451.37 826.37,451.21 C826.85,451.05 826.97,451.63 826.63,452.51 C826.30,453.39 826.43,453.85 826.93,453.55 C827.42,453.24 827.98,453.33 828.16,453.74 C828.35,454.16 830.49,456.19 832.92,458.25 ZM 781.58 503.23 C784.84,506.38 787.26,508.97 786.96,508.98 C786.66,508.99 784.52,507.07 782.20,504.71 C779.88,502.34 775.52,499.16 772.49,497.63 C766.30,494.50 765.15,493.20 770.57,495.46 C772.53,496.28 774.44,496.85 774.82,496.73 C775.19,496.60 775.54,496.73 775.58,497.00 C775.62,497.27 778.32,500.08 781.58,503.23 ZM 833.91 503.21 C831.76,505.29 829.66,506.98 829.25,506.96 C828.84,506.94 830.75,504.84 833.50,502.30 C838.34,497.83 846.58,493.25 847.73,494.39 C848.03,494.70 847.43,495.22 846.39,495.54 C842.08,496.88 837.58,499.64 833.91,503.21 ZM 611.01 279.55 C612.38,280.31 613.72,280.93 614.00,280.92 C614.80,280.92 607.71,274.97 605.50,273.79 C603.71,272.84 603.74,272.99 605.76,275.19 C607.00,276.54 607.68,278.02 607.26,278.48 C606.84,278.94 606.96,279.06 607.51,278.75 C608.07,278.43 609.64,278.80 611.01,279.55 ZM 796.97 529.42 C798.17,533.02 798.95,536.76 798.69,537.73 C798.32,539.18 798.21,539.12 798.12,537.41 C798.05,536.26 797.10,532.69 796.00,529.49 C794.90,526.29 794.17,523.49 794.39,523.27 C794.61,523.05 795.78,525.82 796.97,529.42 ZM 827.30 510.67 C825.47,513.45 824.51,513.78 825.93,511.13 C826.48,510.10 826.72,509.05 826.46,508.80 C826.21,508.54 826.64,508.33 827.41,508.33 C828.60,508.33 828.58,508.71 827.30,510.67 ZM 790.47 452.15 C790.65,452.34 790.17,453.08 789.40,453.79 C788.63,454.50 788.00,454.64 788.00,454.10 C788.00,453.06 789.90,451.56 790.47,452.15 Z" fill="rgb(56,174,179)"/>
<path d="M 812.49 546.70 C810.91,548.00 809.06,549.00 808.18,549.00 C805.99,549.00 799.77,544.56 800.68,543.65 C801.04,543.29 800.82,543.00 800.20,543.00 C799.57,543.00 799.32,542.33 799.64,541.50 C799.95,540.67 799.72,540.00 799.11,540.00 C798.50,540.00 798.00,539.15 798.00,538.11 C798.00,537.06 797.02,533.13 795.82,529.36 C794.62,525.58 793.72,522.15 793.82,521.73 C793.93,521.31 792.92,518.83 791.59,516.23 C788.54,510.29 778.61,500.85 771.74,497.36 C766.78,494.84 753.00,490.03 750.61,489.98 C750.00,489.96 747.92,488.50 746.00,486.73 C743.20,484.14 742.50,482.75 742.50,479.75 C742.50,477.69 742.84,476.00 743.25,476.00 C743.66,476.00 743.89,475.51 743.75,474.91 C743.61,474.31 744.40,473.29 745.50,472.66 C746.60,472.02 747.72,471.25 748.00,470.95 C748.28,470.65 749.58,470.34 750.91,470.25 C752.24,470.17 753.62,469.61 753.99,469.02 C754.36,468.42 755.41,468.22 756.33,468.57 C757.32,468.95 758.00,468.72 758.00,468.00 C758.00,467.33 758.67,467.04 759.50,467.36 C760.33,467.68 761.00,467.58 761.00,467.15 C761.00,466.72 763.41,465.61 766.35,464.68 C772.02,462.89 779.34,458.48 783.77,454.39 C783.10,455.09 782.43,455.72 781.76,456.29 C779.30,458.38 773.74,461.67 769.39,463.62 C765.05,465.56 762.74,466.89 764.25,466.56 C765.76,466.23 767.00,466.23 767.00,466.55 C767.00,468.16 763.94,469.82 759.95,470.37 C757.50,470.71 754.60,471.18 753.50,471.41 C752.40,471.64 751.23,471.87 750.90,471.92 C748.98,472.18 745.00,477.26 745.00,479.44 C745.00,483.26 750.21,487.66 756.26,488.96 C759.07,489.56 761.84,490.45 762.43,490.93 C763.02,491.42 764.99,492.04 766.80,492.33 C768.62,492.61 770.69,493.32 771.39,493.91 C772.10,494.50 773.05,494.65 773.50,494.24 C773.95,493.83 773.95,494.14 773.50,494.92 C772.90,495.95 773.09,496.18 774.20,495.75 C775.21,495.37 777.76,497.19 781.59,501.00 C784.81,504.22 787.86,506.59 788.37,506.27 C788.89,505.95 788.99,506.21 788.60,506.85 C788.20,507.48 788.39,508.00 789.00,508.00 C789.61,508.00 789.84,508.45 789.50,509.00 C789.16,509.55 789.27,510.00 789.74,510.00 C790.21,510.00 791.14,511.49 791.79,513.31 C792.45,515.12 793.86,517.55 794.93,518.70 C796.00,519.85 796.61,521.06 796.27,521.39 C795.94,521.73 796.28,522.00 797.03,522.00 C797.98,522.00 798.08,522.32 797.36,523.04 C795.88,524.52 801.71,543.66 803.54,543.32 C804.07,543.22 805.28,543.85 806.23,544.71 C807.72,546.05 808.20,546.08 809.67,544.89 C811.15,543.69 811.27,543.70 810.55,545.00 C809.88,546.20 810.06,546.18 811.43,544.90 C812.37,544.02 813.76,541.54 814.52,539.40 C815.29,537.25 815.93,536.31 815.96,537.30 C815.98,538.29 815.09,540.99 813.97,543.30 C812.92,545.47 812.43,546.50 812.49,546.70 ZM 823.59 517.74 C824.37,516.06 824.92,514.40 824.94,513.40 C825.03,508.79 825.55,507.65 829.12,504.26 C831.21,502.29 832.68,500.29 832.40,499.83 C832.11,499.38 832.58,499.00 833.44,499.00 C834.30,499.00 835.00,498.52 835.00,497.94 C835.00,497.36 835.43,497.15 835.96,497.48 C836.99,498.11 845.00,493.25 845.00,491.99 C845.00,491.36 850.11,490.08 855.04,489.48 C855.89,489.38 857.57,488.76 858.78,488.12 C859.99,487.47 862.53,486.88 864.42,486.81 C866.48,486.73 868.85,485.76 870.32,484.40 C871.68,483.14 872.98,482.31 873.21,482.55 C873.45,482.78 873.61,481.26 873.57,479.17 C873.48,474.30 870.89,471.63 866.12,471.50 C864.13,471.45 861.65,470.92 860.61,470.33 C859.57,469.74 857.89,469.48 856.87,469.74 C854.32,470.41 849.79,469.15 850.52,467.97 C850.85,467.44 850.61,467.00 849.99,467.00 C848.14,467.00 839.00,462.82 839.00,461.97 C839.00,461.53 841.29,462.28 844.08,463.63 C846.87,464.98 850.59,466.30 852.33,466.56 C854.43,466.87 853.66,466.35 850.03,465.00 C847.10,463.91 844.48,462.79 842.13,461.59 C843.90,462.47 845.78,463.24 847.78,463.92 C851.48,465.17 855.17,466.45 856.00,466.77 C856.83,467.08 858.85,467.49 860.50,467.68 C866.64,468.36 873.94,471.07 875.45,473.24 C876.25,474.37 876.73,475.78 876.92,477.24 C876.67,475.45 875.89,474.05 874.41,472.68 C871.80,470.26 861.56,467.11 860.33,468.34 C859.96,468.70 860.75,469.01 862.08,469.02 C863.50,469.02 864.02,469.34 863.35,469.77 C862.71,470.17 864.25,470.55 866.77,470.60 C870.56,470.68 871.75,471.20 873.67,473.60 C874.95,475.20 875.99,477.74 876.00,479.25 C876.00,480.68 876.20,481.86 876.46,481.99 C876.08,483.07 875.51,484.01 874.75,484.70 C871.47,487.68 869.43,488.57 859.05,491.49 C844.94,495.45 838.27,498.88 832.35,505.18 C829.52,508.20 825.98,513.07 824.49,516.01 C824.20,516.59 823.89,517.17 823.59,517.74 ZM 839.62 460.22 C832.60,456.12 828.15,451.02 824.48,443.40 C822.57,439.42 820.96,435.56 820.92,434.83 C820.87,433.99 820.67,433.92 820.38,434.63 C820.12,435.25 821.06,438.34 822.46,441.50 L 822.53 441.66 C824.57,446.27 825.12,447.53 824.78,447.87 C824.65,448.00 824.39,448.00 824.03,448.00 L 824.00 448.00 C823.45,448.00 822.95,447.21 822.88,446.25 C822.77,444.58 822.75,444.58 822.31,446.25 C821.59,449.00 819.00,448.37 819.00,445.44 C819.00,443.99 819.43,443.15 820.00,443.50 C821.40,444.37 821.25,442.65 819.80,441.20 C819.14,440.54 818.94,440.00 819.36,440.00 C819.77,440.00 819.41,439.00 818.56,437.78 C817.70,436.56 817.00,434.55 817.00,433.33 C817.00,426.20 813.31,417.08 811.00,418.50 C810.53,418.79 810.00,418.34 809.83,417.51 C809.54,416.19 809.04,416.22 806.00,417.78 C804.08,418.76 802.62,420.15 802.77,420.86 C802.94,421.63 802.57,421.85 801.85,421.41 C801.04,420.91 800.86,421.20 801.30,422.34 C801.65,423.26 801.45,424.00 800.85,424.00 C799.80,424.00 800.01,421.59 801.44,417.50 C801.89,416.22 801.60,416.40 800.64,418.00 C800.53,418.19 800.42,418.40 800.32,418.63 C800.84,417.31 801.29,416.38 801.58,416.07 C802.36,415.24 804.96,414.62 807.78,414.57 C814.06,414.48 815.78,416.21 818.13,425.00 C823.11,443.55 829.38,454.11 839.62,460.22 ZM 606.86 273.28 C604.67,271.73 602.06,270.30 602.87,271.31 C603.63,272.24 603.85,273.00 603.37,273.00 C602.89,273.00 602.65,281.44 602.84,291.75 C603.02,302.06 602.80,314.77 602.34,320.00 L 601.51 329.50 L 600.94 320.50 C600.82,318.59 600.73,317.15 600.65,316.23 C600.93,307.82 601.29,298.47 601.54,293.17 C601.93,284.93 601.76,280.41 601.03,279.54 C599.93,278.21 600.66,269.99 601.88,270.01 C602.35,270.02 604.20,271.26 606.86,273.28 ZM 800.06 419.29 C799.52,420.89 799.33,423.04 799.51,425.57 C799.80,429.61 799.28,431.90 796.91,436.87 C795.28,440.29 794.21,443.52 794.53,444.05 C794.85,444.57 794.59,445.00 793.95,445.00 C793.31,445.00 793.05,445.67 793.36,446.50 C793.72,447.43 793.36,448.00 792.41,448.00 C791.57,448.00 791.16,448.45 791.50,449.00 C791.84,449.55 791.59,450.00 790.94,450.00 C790.05,450.00 790.04,450.34 790.89,451.37 C792.30,453.06 790.06,455.22 786.50,455.60 C784.20,455.84 784.23,455.71 787.63,451.26 C789.56,448.74 792.19,444.59 793.48,442.05 C795.94,437.19 799.47,426.14 798.79,425.45 C798.57,425.23 797.42,428.30 796.25,432.28 C794.64,437.70 791.87,443.42 788.68,448.20 C792.13,442.60 795.27,435.12 797.61,426.82 C798.40,424.02 799.29,421.30 800.06,419.29 ZM 549.48 435.79 C547.96,433.98 545.95,431.96 545.02,431.31 C544.09,430.65 542.08,428.40 540.56,426.31 C539.04,424.21 541.49,426.27 546.01,430.88 C554.49,439.54 555.86,439.96 556.05,434.00 C556.09,432.62 556.99,429.02 558.04,426.00 C559.10,422.98 559.78,421.62 559.55,423.00 C559.32,424.38 558.82,427.30 558.44,429.50 C558.05,431.70 558.02,433.23 558.38,432.91 C558.70,432.61 559.26,430.76 559.89,428.22 C559.74,428.88 559.60,429.51 559.45,430.12 C557.97,436.38 556.47,441.98 556.13,442.57 C555.78,443.17 548.22,436.31 539.00,427.01 C525.26,413.15 509.86,400.00 493.45,387.97 C509.31,399.55 524.10,412.06 537.00,424.98 C550.96,438.96 555.31,442.73 549.48,435.79 ZM 772.50 463.31 C775.25,461.88 778.88,459.66 780.57,458.37 L 783.65 456.03 L 783.22 458.95 C782.83,461.64 780.00,464.24 780.00,461.91 C780.00,461.34 779.54,461.16 778.98,461.51 C778.42,461.86 778.21,462.53 778.51,463.02 C778.81,463.50 778.18,463.73 777.12,463.52 C776.05,463.32 774.35,463.78 773.34,464.54 C772.33,465.31 770.60,465.93 769.50,465.92 C768.25,465.91 769.38,464.93 772.50,463.31 ZM 832.92 458.25 C830.49,456.19 828.35,454.16 828.16,453.74 C827.98,453.33 827.42,453.24 826.93,453.55 C826.43,453.85 826.30,453.39 826.63,452.51 C826.97,451.63 826.85,451.05 826.37,451.21 C825.89,451.37 825.39,451.16 825.25,450.75 C824.32,447.97 825.78,448.90 831.48,454.74 C835.04,458.39 837.82,461.52 837.65,461.68 C837.48,461.85 835.36,460.30 832.92,458.25 ZM 781.58 503.23 C778.32,500.08 775.62,497.27 775.58,497.00 C775.54,496.73 775.19,496.60 774.82,496.73 C774.44,496.85 772.53,496.28 770.57,495.46 C765.15,493.20 766.30,494.50 772.49,497.63 C775.52,499.16 779.88,502.34 782.20,504.71 C784.52,507.07 786.66,508.99 786.96,508.98 C787.26,508.97 784.84,506.38 781.58,503.23 ZM 702.39 534.82 C704.20,531.32 704.87,528.20 705.86,522.95 C707.84,512.58 709.21,502.36 708.31,504.74 C707.96,505.67 707.33,505.71 705.84,504.91 C703.90,503.87 703.89,503.77 705.65,501.67 C706.64,500.48 704.09,502.88 699.98,507.00 C696.46,510.53 692.82,513.95 689.06,517.26 C692.87,513.87 696.53,510.36 700.05,506.75 C704.20,502.49 707.97,499.00 708.43,499.00 C709.57,499.00 708.26,511.42 705.85,523.46 C704.87,528.39 704.17,531.42 702.39,534.82 ZM 833.91 503.21 C837.58,499.64 842.08,496.88 846.39,495.54 C847.43,495.22 848.03,494.70 847.73,494.39 C846.58,493.25 838.34,497.83 833.50,502.30 C830.75,504.84 828.84,506.94 829.25,506.96 C829.66,506.98 831.76,505.29 833.91,503.21 ZM 611.01 279.55 C609.64,278.80 608.07,278.43 607.51,278.75 C606.96,279.06 606.84,278.94 607.26,278.48 C607.68,278.02 607.00,276.54 605.76,275.19 C603.74,272.99 603.71,272.84 605.50,273.79 C607.71,274.97 614.80,280.92 614.00,280.92 C613.72,280.93 612.38,280.31 611.01,279.55 ZM 796.97 529.42 C795.78,525.82 794.61,523.05 794.39,523.27 C794.17,523.49 794.90,526.29 796.00,529.49 C797.10,532.69 798.05,536.26 798.12,537.41 C798.21,539.12 798.32,539.18 798.69,537.73 C798.95,536.76 798.17,533.02 796.97,529.42 ZM 827.30 510.67 C828.58,508.71 828.60,508.33 827.41,508.33 C826.64,508.33 826.21,508.54 826.46,508.80 C826.72,509.05 826.48,510.10 825.93,511.13 C824.51,513.78 825.47,513.45 827.30,510.67 ZM 616.77 561.92 C575.55,579.17 528.26,587.85 478.51,586.68 C528.02,587.85 575.56,579.07 616.77,561.92 ZM 790.47 452.15 C789.90,451.56 788.00,453.06 788.00,454.10 C788.00,454.64 788.63,454.50 789.40,453.79 C790.17,453.08 790.65,452.34 790.47,452.15 ZM 816.93 537.50 C817.51,534.20 818.23,529.83 818.53,527.78 C818.56,527.60 818.59,527.42 818.62,527.24 L 818.62 527.28 C816.93,539.13 816.29,542.43 814.49,544.72 C815.45,543.18 816.42,540.33 816.93,537.50 ZM 654.65 320.31 C663.25,331.04 670.31,341.25 672.55,346.84 C670.56,341.86 663.73,331.80 654.65,320.31 ZM 562.99 410.55 C562.99,410.53 562.99,410.52 562.99,410.50 C563.01,408.55 563.69,403.74 564.56,399.22 C563.97,402.67 563.38,406.82 563.05,410.04 C563.03,410.21 563.01,410.38 562.99,410.55 ZM 616.77 281.27 C616.01,280.64 615.25,280.04 614.50,279.44 C611.75,277.27 609.28,275.27 609.00,275.00 C608.86,274.86 608.70,274.72 608.53,274.57 C610.92,276.43 613.77,278.75 616.77,281.27 ZM 565.67 393.62 C566.64,388.42 567.81,381.36 568.58,376.00 C569.53,369.39 570.61,363.73 571.03,363.06 C570.61,363.73 569.54,369.39 568.60,376.00 C567.73,382.13 566.49,389.57 565.67,393.62 ZM 600.02 332.32 C599.80,337.41 599.42,341.18 599.03,341.57 C598.54,342.06 597.90,347.34 597.52,353.70 C597.89,347.38 598.52,342.08 598.98,341.52 C599.31,341.12 599.70,337.46 600.02,332.32 ZM 635.50 298.47 C632.11,295.02 628.61,291.65 625.14,288.49 C625.65,288.95 626.16,289.41 626.66,289.86 C629.44,292.36 632.43,295.28 635.50,298.47 ZM 877.00 478.54 C877.00,478.34 876.99,478.14 876.98,477.95 C877.01,478.35 877.01,478.76 876.99,479.16 C877.00,478.96 877.00,478.75 877.00,478.54 ZM 820.15 523.05 C820.24,522.93 820.32,522.82 820.41,522.73 C820.43,522.72 820.44,522.70 820.46,522.68 C820.45,522.69 820.44,522.70 820.43,522.71 C820.34,522.80 820.24,522.92 820.15,523.05 Z" fill="rgb(77,186,186)"/>
<path d="M 725.39 272.04 C724.00,272.57 712.66,272.98 700.18,272.96 C676.22,272.92 673.37,272.44 671.03,268.05 C669.71,265.60 669.66,225.04 670.96,221.61 C672.89,216.54 675.80,216.00 701.39,216.00 C724.78,216.00 724.90,216.01 727.69,218.41 L 730.50 220.82 L 730.80 242.86 C731.14,266.99 730.56,270.07 725.39,272.04 ZM 821.59 269.69 L 819.18 272.50 L 796.84 272.76 C772.80,273.05 770.70,272.69 768.26,267.98 C767.30,266.13 767.04,259.82 767.24,243.16 L 767.50 220.82 L 770.31 218.41 C773.09,216.02 773.27,216.00 795.63,216.00 L 818.15 216.00 L 821.08 218.92 L 824.00 221.85 L 824.00 244.37 C824.00,266.73 823.98,266.91 821.59,269.69 ZM 788.93 361.54 C786.70,362.69 781.50,363.00 764.47,363.00 L 742.85 363.00 L 739.92 360.08 L 737.00 357.15 L 737.00 312.18 L 743.15 307.00 L 787.15 307.00 L 790.08 309.92 L 793.00 312.85 L 793.00 334.84 C793.00,346.94 792.72,357.56 792.38,358.46 C792.04,359.35 790.48,360.73 788.93,361.54 Z" fill="rgb(164,165,247)"/>
<path d="M 0.00 512.00 L 0.00 0.00 L 512.00 0.00 L 1024.00 0.00 L 1024.00 512.00 L 1024.00 1024.00 L 512.00 1024.00 L 0.00 1024.00 L 0.00 512.00 ZM 527.87 799.72 C548.04,781.02 773.12,555.30 773.64,553.24 C774.67,549.22 773.03,544.30 768.93,539.15 C761.96,530.39 755.89,528.10 749.31,531.75 C743.75,534.83 526.74,751.91 506.52,774.63 C497.43,784.83 495.93,788.24 497.91,794.23 C499.30,798.45 507.69,806.82 511.56,807.86 C516.53,809.19 518.97,807.97 527.87,799.72 ZM 468.13 733.85 C475.69,733.22 482.40,732.37 483.05,731.97 C483.82,731.50 480.07,727.22 472.47,719.87 C441.21,689.67 410.46,647.55 391.56,609.03 C388.64,603.08 385.87,597.60 385.40,596.86 C384.93,596.11 383.80,593.47 382.89,591.00 C381.98,588.53 378.92,580.42 376.08,573.00 C366.52,547.94 359.24,520.61 356.43,499.25 C356.05,496.36 355.33,494.00 354.82,494.00 C354.32,494.00 353.96,491.86 354.04,489.25 C354.23,482.74 352.90,466.80 352.04,465.17 C351.55,464.25 346.71,468.69 336.50,479.42 C306.18,511.27 285.12,540.70 264.96,579.39 C256.16,596.27 244.01,623.39 244.00,626.16 C243.99,630.67 273.22,662.24 291.35,677.32 C340.66,718.31 405.62,739.09 468.13,733.85 ZM 582.00 662.64 C657.58,587.48 673.87,570.79 687.06,554.97 C702.82,536.07 703.59,534.78 705.85,523.46 C708.26,511.42 709.57,499.00 708.43,499.00 C707.97,499.00 704.20,502.49 700.05,506.75 C649.02,559.15 566.91,588.77 478.50,586.68 C452.94,586.07 440.69,584.58 419.15,579.43 C411.26,577.54 404.57,576.00 404.29,576.00 C402.05,576.00 418.44,610.25 428.94,627.50 C449.51,661.31 465.62,681.80 493.25,709.31 C508.27,724.25 514.71,729.65 515.95,728.36 C516.25,728.04 545.98,698.47 582.00,662.64 ZM 234.94 587.72 C250.03,552.33 273.52,515.32 299.51,486.00 C313.10,470.66 334.02,450.15 348.52,437.94 C374.09,416.40 408.47,393.53 428.14,384.97 C436.27,381.43 438.22,380.17 437.48,378.97 C436.84,377.93 416.03,367.85 404.49,362.99 C362.60,345.35 312.19,336.00 258.93,336.00 L 245.02 336.00 L 241.56 340.75 C233.73,351.51 221.53,374.28 216.41,387.70 C214.98,391.44 211.80,401.25 209.35,409.50 C201.34,436.40 198.45,459.99 199.30,491.50 C200.05,519.17 204.08,541.40 213.15,567.90 C217.43,580.40 227.64,602.69 228.63,601.70 C228.97,601.37 231.81,595.07 234.94,587.72 ZM 550.50 555.42 C560.47,553.62 581.31,547.96 582.05,546.85 C582.36,546.39 584.83,545.60 587.55,545.08 C590.27,544.56 597.38,542.09 603.35,539.59 C640.54,524.00 672.76,500.53 701.67,468.00 C709.75,458.90 711.00,457.02 711.00,453.92 C711.00,451.95 710.67,450.01 710.28,449.61 C709.51,448.85 704.14,423.41 702.50,412.78 C702.18,410.74 701.38,408.49 700.71,407.78 C699.18,406.16 697.00,400.00 697.00,397.30 C697.00,394.48 691.04,379.94 685.82,370.03 C683.44,365.52 680.27,359.40 678.76,356.42 C677.25,353.44 675.61,351.00 675.12,351.00 C674.62,351.00 673.47,349.13 672.55,346.84 C668.00,335.46 643.46,305.00 626.66,289.86 C616.07,280.32 603.23,270.03 601.88,270.01 C600.66,269.99 599.93,278.21 601.03,279.54 C601.76,280.41 601.93,284.93 601.54,293.17 C601.22,299.95 600.72,313.35 600.43,322.95 C600.14,332.55 599.49,340.91 598.98,341.52 C598.47,342.14 597.77,348.46 597.42,355.57 C597.07,362.68 596.46,368.73 596.05,369.00 C595.34,369.48 593.01,385.97 593.22,389.00 C593.38,391.30 590.83,404.37 590.00,405.50 C589.31,406.43 588.51,410.61 586.15,425.50 C585.05,432.48 582.96,440.28 582.01,441.00 C581.64,441.27 579.87,446.90 578.06,453.50 C576.26,460.10 572.36,472.48 569.40,481.00 C566.44,489.52 564.01,497.44 564.01,498.60 C564.00,499.75 563.10,501.73 562.00,503.00 C560.90,504.27 560.00,505.68 560.00,506.13 C560.00,508.12 547.28,534.17 540.95,545.16 C537.13,551.79 534.00,557.38 534.00,557.58 C534.00,558.07 540.74,557.18 550.50,555.42 ZM 813.01 546.25 C816.05,543.51 816.53,541.89 818.62,527.28 C818.87,525.51 819.69,523.46 820.43,522.71 C821.18,521.97 823.00,518.95 824.49,516.01 C825.98,513.07 829.52,508.20 832.35,505.18 C838.27,498.88 844.94,495.45 859.05,491.49 C869.43,488.57 871.47,487.68 874.75,484.70 C877.44,482.25 877.79,476.57 875.45,473.24 C873.94,471.07 866.64,468.36 860.50,467.68 C858.85,467.49 856.83,467.08 856.00,466.77 C855.17,466.45 851.48,465.17 847.78,463.92 C832.48,458.75 824.31,448.03 818.13,425.00 C815.78,416.21 814.06,414.48 807.78,414.57 C804.96,414.62 802.36,415.24 801.58,416.07 C800.84,416.86 799.06,421.69 797.61,426.82 C794.75,436.99 790.68,445.93 786.30,451.68 C782.76,456.33 773.31,462.48 766.35,464.68 C763.41,465.61 761.00,466.72 761.00,467.15 C761.00,467.58 760.33,467.68 759.50,467.36 C758.67,467.04 758.00,467.33 758.00,468.00 C758.00,468.72 757.32,468.95 756.33,468.57 C755.41,468.22 754.36,468.42 753.99,469.02 C753.62,469.61 752.24,470.17 750.91,470.25 C749.58,470.34 748.28,470.65 748.00,470.95 C747.72,471.25 746.60,472.02 745.50,472.66 C744.40,473.29 743.61,474.31 743.75,474.91 C743.89,475.51 743.66,476.00 743.25,476.00 C742.84,476.00 742.50,477.69 742.50,479.75 C742.50,482.75 743.20,484.14 746.00,486.73 C747.92,488.50 750.00,489.96 750.61,489.98 C753.00,490.03 766.78,494.84 771.74,497.36 C778.61,500.85 788.54,510.29 791.59,516.23 C792.92,518.83 793.93,521.31 793.82,521.73 C793.72,522.15 794.62,525.58 795.82,529.36 C797.02,533.13 798.00,537.06 798.00,538.11 C798.00,539.15 798.50,540.00 799.11,540.00 C799.72,540.00 799.95,540.67 799.64,541.50 C799.32,542.33 799.57,543.00 800.20,543.00 C800.82,543.00 801.04,543.29 800.68,543.65 C799.77,544.56 805.99,549.00 808.18,549.00 C809.16,549.00 811.34,547.76 813.01,546.25 ZM 559.45 430.12 C560.94,423.86 562.55,414.83 563.05,410.04 C563.54,405.26 564.60,398.46 565.39,394.93 C566.18,391.39 567.63,382.88 568.60,376.00 C569.58,369.12 570.69,363.27 571.08,363.00 C571.87,362.44 573.50,347.68 573.13,344.40 C573.00,343.24 573.39,337.62 573.99,331.90 C575.35,318.89 576.92,271.49 576.25,263.68 C575.77,258.16 575.52,257.72 571.62,255.19 C569.35,253.72 567.24,252.16 566.92,251.73 C565.69,250.05 546.82,243.00 543.55,243.00 C541.49,243.00 539.75,242.38 539.24,241.47 C538.77,240.63 536.61,239.66 534.44,239.31 C532.27,238.97 530.28,238.39 530.00,238.02 C529.09,236.80 517.43,234.00 513.27,234.00 C511.01,234.00 509.02,233.58 508.83,233.06 C507.36,228.92 439.60,226.27 416.69,229.46 C374.67,235.32 335.99,251.20 302.50,276.37 C294.02,282.73 267.93,308.17 263.99,313.90 L 261.65 317.30 L 266.58 316.63 C269.28,316.27 279.21,315.69 288.64,315.34 C307.72,314.65 321.07,315.73 341.00,319.58 C347.88,320.91 354.70,321.99 356.17,322.00 C357.63,322.00 358.98,322.39 359.17,322.87 C359.58,323.96 377.00,329.00 380.35,329.00 C381.72,329.00 382.98,329.36 383.17,329.80 C383.58,330.79 397.89,336.01 400.17,336.00 C401.08,336.00 401.98,336.40 402.17,336.89 C402.35,337.37 406.40,339.38 411.17,341.35 C457.48,360.45 503.72,391.43 539.00,427.01 C548.22,436.31 555.78,443.17 556.13,442.57 C556.47,441.98 557.97,436.38 559.45,430.12 ZM 788.93 361.54 C790.48,360.73 792.04,359.35 792.38,358.46 C792.72,357.56 793.00,346.94 793.00,334.84 L 793.00 312.85 L 790.08 309.92 L 787.15 307.00 L 765.15 307.00 L 743.15 307.00 L 740.08 309.59 L 737.00 312.18 L 737.00 334.67 L 737.00 357.15 L 739.92 360.08 L 742.85 363.00 L 764.47 363.00 C781.50,363.00 786.70,362.69 788.93,361.54 ZM 725.39 272.04 C730.56,270.07 731.14,266.99 730.80,242.86 L 730.50 220.82 L 727.69 218.41 C724.90,216.01 724.78,216.00 701.39,216.00 C675.80,216.00 672.89,216.54 670.96,221.61 C669.66,225.04 669.71,265.60 671.03,268.05 C673.37,272.44 676.22,272.92 700.18,272.96 C712.66,272.98 724.00,272.57 725.39,272.04 ZM 821.59 269.69 C823.98,266.91 824.00,266.73 824.00,244.37 L 824.00 221.85 L 821.08 218.92 L 818.15 216.00 L 795.63 216.00 C773.27,216.00 773.09,216.02 770.31,218.41 L 767.50 220.82 L 767.24 243.16 C767.04,259.82 767.30,266.13 768.26,267.98 C770.70,272.69 772.80,273.05 796.84,272.76 L 819.18 272.50 L 821.59 269.69 Z" fill="rgb(254,254,254)"/>
</g>
</svg>