<svg xmlns="http://www.w3.org/2000/svg" width="1024" height="1024" viewBox="0 0 1024 1024">
<g>
<path d="M 551.00 438.41 C546.79,432.98 529.37,415.90 519.00,407.03 C473.40,368.01 410.05,335.33 355.03,322.44 C325.07,315.42 296.10,313.16 273.10,316.05 C268.51,316.62 264.52,316.85 264.23,316.56 C262.47,314.81 287.01,289.33 301.56,277.81 C327.82,257.01 367.45,239.22 402.64,232.43 C434.71,226.24 475.95,226.48 508.65,233.05 C528.71,237.07 554.80,245.76 569.25,253.22 L 577.00 257.22 L 577.00 280.86 C576.99,323.29 572.65,364.69 563.42,410.50 C558.62,434.30 556.65,442.29 555.49,442.63 C554.95,442.79 552.92,440.89 551.00,438.41 ZM 223.60 591.54 C206.47,557.03 197.08,507.48 200.03,467.10 C203.37,421.29 215.96,381.57 238.13,346.91 C241.22,342.08 242.66,339.30 244.95,337.77 C248.44,335.45 253.90,336.08 270.23,336.90 C317.77,339.27 343.41,343.30 377.00,353.65 C396.93,359.79 435.73,376.68 436.72,379.65 C436.91,380.22 434.24,381.95 430.78,383.48 C414.96,390.48 388.23,406.99 368.50,421.97 C324.38,455.45 288.75,493.66 261.88,536.30 C252.43,551.29 237.25,580.56 232.60,592.74 C231.07,596.73 229.48,600.20 229.05,600.47 C228.62,600.73 226.17,596.72 223.60,591.54 ZM 433.40 733.98 C370.39,729.72 313.72,702.51 267.85,654.51 C257.07,643.23 246.09,629.91 245.38,627.24 C244.60,624.32 247.10,618.07 258.52,594.37 C273.75,562.76 284.71,544.39 302.90,520.00 C309.26,511.48 317.62,500.90 321.48,496.50 C331.09,485.55 351.21,464.87 351.74,465.40 C351.97,465.64 353.03,473.30 354.08,482.42 C361.30,545.04 382.24,601.13 418.72,655.59 C434.79,679.57 459.55,708.91 477.17,724.86 C481.88,729.13 483.49,731.17 482.67,731.83 C481.62,732.67 475.41,733.20 452.50,734.43 C448.65,734.63 440.05,734.43 433.40,733.98 ZM 536.00 556.03 C536.00,555.50 538.33,551.11 541.19,546.28 C568.77,499.59 590.75,424.25 598.45,350.00 C600.75,327.82 602.27,293.78 601.52,281.25 C601.16,275.06 601.13,270.00 601.47,270.00 C602.72,270.00 615.81,280.43 626.36,289.82 C643.04,304.69 662.59,328.93 675.92,351.26 C687.31,370.35 698.06,396.09 704.11,418.75 C707.16,430.19 711.00,450.16 711.00,454.60 C711.00,457.37 697.37,473.58 685.39,485.05 C655.49,513.67 624.82,532.59 588.00,545.14 C564.74,553.07 536.00,559.09 536.00,556.03 ZM 504.07 719.01 C475.13,692.72 447.50,658.21 426.79,622.50 C421.58,613.52 406.46,582.79 405.44,579.11 C404.85,576.99 405.04,576.79 407.14,577.30 C444.65,586.36 452.51,587.37 486.00,587.39 C506.49,587.40 516.94,586.96 527.00,585.66 C576.67,579.21 616.51,566.22 652.38,544.77 C669.67,534.43 682.72,524.41 696.75,510.66 C708.44,499.22 709.00,498.80 709.00,501.71 C709.00,506.51 704.95,529.15 703.45,532.77 C701.82,536.67 695.73,544.72 683.59,559.00 C672.80,571.70 517.12,728.00 515.27,728.00 C514.55,728.00 509.51,723.96 504.07,719.01 ZM 504.92 802.24 C495.01,792.33 495.43,788.23 507.75,774.31 C521.00,759.34 685.07,594.11 733.20,547.25 L 749.90 531.00 L 754.95 531.00 C759.37,531.00 760.51,531.46 764.16,534.75 C770.91,540.82 774.00,545.73 774.02,550.40 L 774.04 554.50 L 652.27 676.05 C585.30,742.91 527.66,799.94 524.20,802.80 C515.38,810.08 512.68,810.00 504.92,802.24 ZM 804.88 547.49 C802.29,546.09 799.00,540.60 799.00,537.68 C799.00,534.87 793.16,518.95 790.41,514.26 C783.80,502.99 775.33,497.12 758.04,491.85 C746.76,488.42 743.00,485.46 743.00,480.04 C743.00,473.94 744.82,472.57 758.97,468.01 C784.83,459.68 792.29,451.18 799.98,421.26 C800.78,418.17 801.87,416.60 803.99,415.51 C811.46,411.64 815.30,414.71 818.62,427.24 C825.35,452.57 835.66,462.47 861.50,468.39 C873.92,471.23 877.00,473.44 877.00,479.47 C877.00,484.07 872.82,487.39 863.71,490.01 C843.11,495.93 839.29,497.74 832.35,504.78 C825.81,511.43 821.94,519.22 818.14,533.36 C814.46,547.05 810.97,550.77 804.88,547.49 Z" fill="rgba(56,174,179,1)"/>
<path d="M 739.92 360.08 L 737.00 357.15 L 737.00 334.67 L 737.00 312.18 L 740.08 309.59 L 743.15 307.00 L 765.15 307.00 L 787.15 307.00 L 790.08 309.92 L 793.00 312.85 L 793.00 335.33 L 793.00 357.82 L 789.92 360.41 L 786.85 363.00 L 764.85 363.00 L 742.85 363.00 L 739.92 360.08 ZM 675.11 271.60 C670.49,269.04 670.07,266.88 670.04,245.15 C670.00,222.22 670.71,218.99 676.23,217.07 C681.14,215.36 722.43,215.66 725.85,217.43 C730.52,219.83 731.00,222.39 731.00,244.50 C731.00,266.61 730.52,269.17 725.85,271.57 C722.02,273.56 678.68,273.58 675.11,271.60 ZM 772.30 272.02 C767.45,270.00 766.87,266.68 767.20,242.86 L 767.50 220.82 L 770.37 218.36 L 773.23 215.90 L 796.09 216.20 C818.35,216.49 819.01,216.56 821.22,218.78 C823.46,221.02 823.50,221.44 823.50,244.50 C823.50,275.25 826.18,272.43 796.72,272.71 C784.50,272.83 773.51,272.52 772.30,272.02 Z" fill="rgba(159,157,238,1)"/>
</g>
</svg>